<svg xmlns="http://www.w3.org/2000/svg"
  viewBox="0 0 512 512">
<g transform="translate(0,512) scale(0.1,-0.1)"
fill="#696969">
<path d="M3770 4589 c-104 -49 -162 -60 -350 -69 -101 -4 -207 -15 -250 -25
-95 -22 -261 -85 -254 -96 3 -5 -1 -6 -9 -3 -50 19 -613 -351 -591 -388 5 -7
2 -8 -5 -4 -7 5 -21 0 -32 -10 -11 -10 -23 -14 -28 -8 -4 5 -36 44 -70 87 -67
83 -148 141 -188 134 -13 -3 -20 0 -16 6 3 6 -6 8 -26 5 -17 -2 -31 -1 -31 4
0 4 -9 8 -21 8 -11 0 -18 -3 -16 -7 3 -5 -15 -9 -38 -9 -53 -2 -118 -37 -166
-91 -57 -63 -212 -381 -228 -467 -19 -100 40 -307 126 -445 68 -108 106 -147
171 -173 53 -20 73 -22 272 -23 186 0 220 2 249 18 19 9 36 15 38 13 2 -2 -10
-86 -28 -187 -30 -179 -60 -389 -73 -516 -6 -49 -4 -63 6 -63 16 0 42 86 32
102 -4 7 -2 8 4 4 8 -5 12 1 13 16 0 13 10 -8 20 -47 18 -64 20 -92 15 -325
-8 -387 -33 -535 -96 -580 -17 -12 -48 -48 -70 -80 -25 -37 -63 -75 -105 -104
-36 -25 -68 -46 -70 -46 -2 0 -56 -34 -118 -75 -63 -41 -123 -75 -134 -75 -25
0 -103 -55 -103 -73 0 -7 -23 -20 -50 -30 -31 -11 -48 -22 -44 -29 4 -7 2 -8
-5 -4 -20 13 -172 -82 -231 -144 -65 -69 -137 -187 -178 -291 -41 -104 -46
-129 -26 -129 12 0 14 -5 9 -17 -19 -45 -45 -150 -41 -165 2 -10 0 -18 -6 -18
-6 0 -8 -11 -6 -25 3 -13 1 -22 -3 -19 -5 3 -9 -7 -9 -21 0 -18 4 -25 12 -22
9 3 13 -5 13 -23 0 -16 -3 -26 -7 -23 -5 2 -8 -5 -8 -16 l0 -21 1564 0 1564 0
-4 88 c-7 162 -12 217 -29 317 -25 149 -80 339 -96 330 -5 -4 -6 2 -2 11 5 13
3 15 -7 9 -9 -5 -11 -4 -6 3 17 28 -62 128 -142 179 -31 20 -57 45 -62 61 -15
41 -27 57 -40 54 -6 -1 -9 2 -5 7 9 16 -30 31 -82 31 -66 0 -128 43 -273 191
-83 85 -124 120 -149 126 -31 8 -36 15 -48 58 -7 28 -16 95 -20 149 l-6 99
229 -9 c437 -17 572 -7 705 52 72 32 89 54 89 112 0 29 5 44 16 49 8 3 13 12
10 20 -3 8 -1 11 4 8 17 -10 11 27 -7 47 -15 17 -15 22 6 82 43 122 44 218 5
363 -9 34 -20 60 -24 58 -5 -3 -6 5 -2 17 3 11 1 19 -4 16 -5 -4 -9 6 -10 20
-1 15 -22 71 -47 126 -43 90 -47 107 -52 195 -3 53 -8 112 -10 132 -4 33 -2
38 26 50 40 16 111 72 186 146 32 32 93 88 135 126 90 79 166 187 199 284 20
55 24 88 24 178 0 100 -3 116 -29 173 -56 122 -138 160 -278 131 -64 -14 -109
-36 -173 -84 -32 -25 -46 -31 -41 -19 12 32 46 193 46 220 0 16 -18 50 -49 88
-26 33 -65 87 -86 118 -21 32 -41 56 -45 53 -12 -7 -4 33 9 49 11 13 11 17 -2
22 -9 3 -21 3 -28 -1 -8 -5 -9 -1 -4 14 8 26 2 26 -95 1 -41 -11 -77 -20 -80
-19 -3 0 13 15 35 34 22 19 34 35 27 35 -7 0 -10 5 -7 10 11 18 -19 11 -85
-21z"/>
</g>
</svg>
